<svg width="24" height="24" viewBox="0 0 24 24" fill="none" xmlns="http://www.w3.org/2000/svg">
<g id="bxs:left-arrow">
<path id="Vector" d="M18.571 12.8217L5.57103 21.8217C5.421 21.9255 5.24543 21.9863 5.06334 21.9975C4.88124 22.0087 4.69956 21.9698 4.53796 21.8851C4.37635 21.8005 4.24099 21.6732 4.14652 21.5171C4.05206 21.3611 4.00209 21.1821 4.00203 20.9997V2.99969C4.00191 2.81716 4.05174 2.63809 4.14613 2.48187C4.24053 2.32565 4.37588 2.19824 4.53751 2.11346C4.69915 2.02867 4.88091 1.98974 5.06309 2.00089C5.24527 2.01204 5.42093 2.07283 5.57103 2.17669L18.571 11.1767C18.7035 11.2691 18.8116 11.3922 18.8863 11.5354C18.961 11.6786 19 11.8377 19 11.9992C19 12.1607 18.961 12.3198 18.8863 12.463C18.8116 12.6062 18.7035 12.7293 18.571 12.8217Z" fill="#2c2c2c"/>
</g>
</svg>
