<svg width="24" height="24" viewBox="0 0 24 24" fill="none" xmlns="http://www.w3.org/2000/svg">
<g id="bxs:left-arrow">
<path id="Vector" d="M4.43093 12.8217L17.4309 21.8217C17.581 21.9255 17.7565 21.9863 17.9386 21.9975C18.1207 22.0087 18.3024 21.9698 18.464 21.8851C18.6256 21.8005 18.761 21.6732 18.8554 21.5171C18.9499 21.3611 18.9999 21.1821 18.9999 20.9997V2.99969C19 2.81716 18.9502 2.63809 18.8558 2.48187C18.7614 2.32565 18.6261 2.19824 18.4644 2.11346C18.3028 2.02867 18.121 1.98974 17.9389 2.00089C17.7567 2.01204 17.581 2.07283 17.4309 2.17669L4.43093 11.1767C4.29849 11.2691 4.19033 11.3922 4.11564 11.5354C4.04095 11.6786 4.00195 11.8377 4.00195 11.9992C4.00195 12.1607 4.04095 12.3198 4.11564 12.463C4.19033 12.6062 4.29849 12.7293 4.43093 12.8217Z" fill="#2c2c2c"/>
</g>
</svg>
